<?xml version="1.0" encoding="UTF-8"?><svg id="Layer_1" xmlns="http://www.w3.org/2000/svg" xmlns:xlink="http://www.w3.org/1999/xlink" viewBox="0 0 199.09 200"><defs><filter id="drop-shadow-1" filterUnits="userSpaceOnUse"><feOffset dx="8.76" dy="8.76"/><feGaussianBlur result="blur" stdDeviation="8.76"/><feFlood flood-color="#4b8777" flood-opacity=".2"/><feComposite in2="blur" operator="in"/><feComposite in="SourceGraphic"/></filter></defs><rect y="10.03" width="189.97" height="189.97" rx="14.87" ry="14.87" fill="#89b8ad" strokeWidth="0"/><rect x="9.12" width="189.97" height="189.97" rx="14.87" ry="14.87" strokeWidth="0"/><g filter="url(#drop-shadow-1)"><path d="m60.87,88.46h-5.94c3.22-22.88,22.92-40.52,46.67-40.52,17.99,0,34.16,10.07,42.13,25.95.91,1.81,3.03,2.64,4.9,1.87,2.05-.84,2.99-3.26,2-5.24-9.25-18.51-28.08-30.26-49.03-30.26-27.99,0-51.13,21.08-54.41,48.2h-5.94c-.91,0-1.46,1.02-.95,1.77l9.78,14.5c.45.67,1.43.67,1.88,0l9.83-14.46c.51-.75-.03-1.81-.94-1.81Z" fill="#fff" strokeWidth="0"/><path d="m162.91,99.73l-9.78-14.5c-.45-.67-1.43-.67-1.88,0l-9.83,14.46c-.51.76.03,1.78.94,1.78h5.94c-3.22,22.89-22.92,40.55-46.67,40.55-17.99,0-34.16-10.07-42.13-25.95-.91-1.81-3.03-2.64-4.9-1.87-2.05.84-2.99,3.26-2,5.24,9.25,18.51,28.08,30.26,49.03,30.26,27.99,0,51.13-21.09,54.41-48.21h5.93c.91.01,1.46-1.01.95-1.76Z" fill="#fff" strokeWidth="0"/><path d="m119.89,73.44c.77,0,1.54.29,2.13.88,1.17,1.17,1.17,3.08,0,4.25l-36.38,36.38c-1.18,1.17-3.08,1.17-4.25,0-1.17-1.17-1.17-3.08,0-4.25l36.38-36.38c.59-.59,1.36-.88,2.13-.88Z" fill="#fff" strokeWidth="0"/><path d="m114.65,95.46c6.31,0,11.45,5.13,11.45,11.45,0,6.31-5.13,11.45-11.45,11.45-6.31,0-11.45-5.13-11.45-11.45,0-6.31,5.13-11.45,11.45-11.45Zm0,16.88c2.99,0,5.43-2.44,5.43-5.43,0-2.99-2.44-5.43-5.43-5.43s-5.43,2.44-5.43,5.43,2.44,5.43,5.43,5.43Z" fill="#fff" strokeWidth="0"/><path d="m88.58,71.61c6.31,0,11.45,5.13,11.45,11.45,0,6.31-5.13,11.45-11.45,11.45-6.31,0-11.45-5.13-11.45-11.45,0-6.31,5.13-11.45,11.45-11.45Zm0,16.88c2.99,0,5.43-2.44,5.43-5.43s-2.44-5.43-5.43-5.43c-2.99,0-5.43,2.44-5.43,5.43,0,2.99,2.44,5.43,5.43,5.43Z" fill="#fff" strokeWidth="0"/></g></svg>