<svg id="downLeftCenter" viewBox="0 0 3200 1800" preserveAspectRatio="xMidYMid slice" aria-hidden="true"><path id="downLeftCenter1" stroke="#1941e1" d="M1784.979125-1448.54675l-316.111068 4061.0262"></path><path id="downLeftCenter2" stroke="#1a43e1" d="M1723.078524-1434.99687l-168.30987 4051.92643"></path><path id="downLeftCenter3" stroke="#1b46e1" d="M1659.721106-1418.366439l-20.595039 4039.665561"></path><path id="downLeftCenter4" stroke="#1c48e1" d="M1597.82051-1402.816545l127.20616 4030.565791"></path><path id="downLeftCenter5" stroke="#1d4be1" d="M1536.261931-1386.326967l274.323318 4019.586635"></path><path id="downLeftCenter6" stroke="#1e4de1" d="M1473.361325-1370.77708l422.124516 4010.486865"></path><path id="downLeftCenter7" stroke="#1f50e0" d="M1411.802744-1355.28751l569.241673 3999.50771"></path><path id="downLeftCenter8" stroke="#1f52e0" d="M1349.103317-1340.596762l717.640544 3989.126226"></path><path id="downLeftCenter9" stroke="#2055e0" d="M1287.202717-1324.04688l865.441742 3980.026456"></path><path id="downLeftCenter10" stroke="#2157e0" d="M1225.613982-1308.72831l1011.619207 3969.389321"></path><path id="downLeftCenter11" stroke="#225ae0" d="M1161.884397-1294.208581l1159.078386 3959.349858"></path><path id="downLeftCenter12" stroke="#235ce0" d="M1100.325818-1277.719004l1306.195543 3948.370701"></path><path id="downLeftCenter13" stroke="#245fe0" d="M1038.425219-1262.16912L2492.42196 2677.101813"></path><path id="downLeftCenter14" stroke="#2561e0" d="M976.86664-1246.67954l1601.1139 3928.291774"></path><path id="downLeftCenter15" stroke="#2664e0" d="M913.167204-1231.988799l1749.51277 3917.910293"></path><path id="downLeftCenter16" stroke="#2766e0" d="M851.266605-1216.438914l1897.313968 3908.810522"></path><path id="downLeftCenter17" stroke="#2869df" d="M789.708026-1199.949337L2834.139152 2697.88203"></path><path id="downLeftCenter18" stroke="#296bdf" d="M725.978432-1185.429605L2917.868736 2702.3623"></path><path id="downLeftCenter19" stroke="#2a6edf" d="M664.419853-1169.940026l2339.007462 3876.812749"></path><path id="downLeftCenter20" stroke="#2b70df" d="M602.489097-1154.56115l2485.868968 3868.055"></path><path id="downLeftCenter21" stroke="#2c73df" d="M540.930518-1138.071573l2632.986126 3857.075844"></path><path id="downLeftCenter22" stroke="#2c75df" d="M478.23109-1121.38083l2781.384995 3846.694357"></path><path id="downLeftCenter23" stroke="#2d78df" d="M415.67251-1105.89126l2928.502157 3835.715209"></path><path id="downLeftCenter24" stroke="#2e7adf" d="M353.771912-1091.341374l3076.303354 3826.615438"></path><path id="downLeftCenter25" stroke="#2f7ddf" d="M292.213334-1075.851794l3223.42051 3815.63628"></path><path id="downLeftCenter26" stroke="#307fdf" d="M230.483746-1059.33206l3370.879688 3805.596814"></path><path id="downLeftCenter27" stroke="#3182de" d="M166.613298-1045.611169l3519.62058 3796.155028"></path><path id="downLeftCenter28" stroke="#3284de" d="M105.05472-1029.121591l3666.737737 3785.175873"></path><path id="downLeftCenter29" stroke="#3387de" d="M43.264818-1013.943872L3855.58235 2761.87657"></path><path id="downLeftCenter30" stroke="#3489de" d="M-19.263602-997.283287l3960.374377 3764.499271"></path><path id="downLeftCenter31" stroke="#358cde" d="M-81.164203-983.733407L4027.011374 2771.6661"></path><path id="downLeftCenter32" stroke="#368ede" d="M-143.722788-967.243827L4111.569953 2777.17652"></path><path id="downLeftCenter33" stroke="#3791de" d="M-205.452375-951.72409l4402.751918 3734.38088"></path><path id="downLeftCenter34" stroke="#3893de" d="M-267.352974-937.174203l4550.553116 3725.281107"></path><path id="downLeftCenter35" stroke="#3996de" d="M-330.881393-921.513625l4698.60996 3713.959941"></path><path id="downLeftCenter36" stroke="#3998de" d="M-392.610981-904.993891l4846.069136 3703.920476"></path><path id="downLeftCenter37" stroke="#3a9bdd" d="M-454.16956-889.504311l4993.186294 3692.941318"></path><path id="downLeftCenter38" stroke="#3b9ddd" d="M-516.07016-872.95443l5140.987493 3683.841552"></path><path id="downLeftCenter39" stroke="#3ca0dd" d="M-580.598592-857.293836l5289.044351 3672.52037"></path><path id="downLeftCenter40" stroke="#3da2dd" d="M-641.388489-843.116126l5434.624144 3663.164949"></path></svg>