<svg width="42" height="42" viewBox="0 0 42 42" fill="none" xmlns="http://www.w3.org/2000/svg">
<path id="Vector" d="M21 0C9.40996 0 0 9.40613 0 21C0 32.5939 9.40996 42 21 42C32.59 42 42 32.5939 42 21C42 9.40613 32.6012 0 21 0ZM21 33.4268C20.4439 33.4268 19.8988 33.3823 19.3649 33.3046L27.0064 19.6007C27.3512 19.0011 27.4513 18.2903 27.2733 17.624C27.1176 17.0576 26.795 16.5801 26.339 16.2359C26.2611 16.1692 26.161 16.1026 26.072 16.0471C25.4158 15.6584 24.5482 15.5918 23.9364 15.825L15.839 17.9905C15.1605 18.1682 14.6043 18.6013 14.2595 19.201C13.9147 19.8006 13.8146 20.5114 13.9926 21.1777C14.1706 21.8551 14.6043 22.4104 15.205 22.7546C15.8056 23.0989 16.5175 23.1877 17.1849 23.01L19.5207 22.3882L14.6155 31.1724C14.5487 31.2946 14.5042 31.4167 14.4597 31.5389C10.9227 29.3511 8.56462 25.4421 8.56462 20.9889C8.56462 14.1259 14.1261 8.56214 20.9889 8.56214C27.8517 8.56214 33.4131 14.1259 33.4131 20.9889C33.4131 27.8519 27.8517 33.4157 20.9889 33.4157L21 33.4268Z" fill="url(#paint0_linear_205_4549)"/>
<defs>
<linearGradient id="paint0_linear_205_4549" x1="-3.32574" y1="33.3934" x2="58.1879" y2="1.95317" gradientUnits="userSpaceOnUse">
<stop stop-color="#D6196A"/>
<stop offset="0.61" stop-color="#E7464A"/>
<stop offset="1" stop-color="#F15E39"/>
</linearGradient>
</defs>
</svg>
