<?xml version="1.0" encoding="UTF-8"?><svg id="Layer_1" xmlns="http://www.w3.org/2000/svg" xmlns:xlink="http://www.w3.org/1999/xlink" viewBox="0 0 199.09 200"><defs><filter id="drop-shadow-1" filterUnits="userSpaceOnUse"><feOffset dx="6.44" dy="6.44"/><feGaussianBlur result="blur" stdDeviation="6.44"/><feFlood flood-color="#007aff" flood-opacity=".2"/><feComposite in2="blur" operator="in"/><feComposite in="SourceGraphic"/></filter></defs><rect y="10.03" width="189.97" height="189.97" rx="14.87" ry="14.87" fill="#89b8ad" strokeWidth="0"/><rect x="9.12" width="189.97" height="189.97" rx="14.87" ry="14.87" strokeWidth="0"/><g filter="url(#drop-shadow-1)"><path d="m100.74,39.79c-1.41,0-2.72.63-3.6,1.72l-28.17,35c-1.13,1.4-1.35,3.28-.57,4.9.78,1.62,2.37,2.63,4.17,2.63h12.21c.11,0,.2.09.2.2v60.37c0,2.55,2.07,4.62,4.62,4.62h12.37c1.22,0,2.21-.99,2.21-2.21,0-1.22-.99-2.21-2.21-2.21h-12.37c-.11,0-.2-.09-.2-.2v-60.37c0-2.55-2.07-4.62-4.62-4.62h-12.21s-.13,0-.18-.11,0-.18.02-.21l28.17-35s.06-.08.16-.08.14.06.16.08l28.17,35s.08.1.02.21c-.05.11-.13.11-.18.11h-12.21c-2.55,0-4.62,2.07-4.62,4.62v15.81c0,1.22.99,2.21,2.21,2.21,1.22,0,2.21-.99,2.21-2.21v-15.81c0-.11.09-.2.2-.2h12.21c1.8,0,3.4-1.01,4.17-2.63.78-1.62.56-3.5-.57-4.9l-28.17-35c-.88-1.1-2.2-1.72-3.6-1.72Z" fill="#fff" strokeWidth="0"/><path d="m126.33,106.69c.57,0,1.13.22,1.56.65.86.86.86,2.26,0,3.13l-26.74,26.74c-.86.86-2.26.86-3.13,0-.86-.86-.86-2.26,0-3.13l26.74-26.74c.43-.43,1-.65,1.56-.65Z" fill="#fff" strokeWidth="0"/><path d="m122.47,122.88c4.64,0,8.41,3.77,8.41,8.41,0,4.64-3.77,8.41-8.41,8.41s-8.41-3.77-8.41-8.41,3.77-8.41,8.41-8.41Zm0,12.41c2.2,0,3.99-1.79,3.99-3.99s-1.79-3.99-3.99-3.99-3.99,1.79-3.99,3.99c0,2.2,1.79,3.99,3.99,3.99Z" fill="#fff" strokeWidth="0"/><path d="m103.31,105.35c4.64,0,8.41,3.77,8.41,8.41,0,4.64-3.77,8.41-8.41,8.41s-8.41-3.77-8.41-8.41c0-4.64,3.77-8.41,8.41-8.41Zm0,12.41c2.2,0,3.99-1.79,3.99-3.99,0-2.2-1.79-3.99-3.99-3.99-2.2,0-3.99,1.79-3.99,3.99s1.79,3.99,3.99,3.99Z" fill="#fff" strokeWidth="0"/></g></svg>