<svg width="612" height="621" viewBox="0 0 612 621" fill="none" xmlns="http://www.w3.org/2000/svg">
<path opacity="0.1" d="M306 0C137.117 0 0 139.076 0 310.5C0 481.924 137.117 621 306 621C474.884 621 612 481.924 612 310.5C612 139.076 475.046 0 306 0ZM306 494.238C297.896 494.238 289.954 493.582 282.175 492.432L393.521 289.811C398.546 280.944 400.004 270.435 397.411 260.584C395.142 252.209 390.442 245.149 383.797 240.059C382.662 239.074 381.203 238.088 379.907 237.267C370.344 231.52 357.702 230.535 348.788 233.983L230.797 266.002C220.91 268.629 212.806 275.033 207.782 283.9C202.757 292.767 201.299 303.275 203.892 313.127C206.485 323.143 212.806 331.353 221.558 336.443C230.31 341.534 240.683 342.847 250.408 340.22L284.444 331.025L212.968 460.906C211.996 462.712 211.347 464.518 210.699 466.325C159.159 433.978 124.799 376.18 124.799 310.336C124.799 208.861 205.837 126.597 305.838 126.597C405.839 126.597 486.877 208.861 486.877 310.336C486.877 411.811 405.839 494.074 305.838 494.074L306 494.238Z" fill="url(#paint0_linear_24_923)"/>
<defs>
<linearGradient id="paint0_linear_24_923" x1="0" y1="621" x2="612" y2="621" gradientUnits="userSpaceOnUse">
<stop stop-color="#FA00FF"/>
<stop offset="1" stop-color="#0094FF"/>
</linearGradient>
</defs>
</svg>
