<svg width="78" height="78" viewBox="0 0 78 78" fill="none" xmlns="http://www.w3.org/2000/svg">
<g id="Group 1000003207">
<circle id="Ellipse 142" cx="39.0001" cy="38.7425" r="37.9828" fill="url(#paint0_linear_459_6585)" fill-opacity="0.1" stroke="url(#paint1_linear_459_6585)" strokeWidth="1.51931"/>
<g id="Group 1000003205">
<g id="Group">
<g id="Group_2">
<path id="Vector" d="M29.4717 44.2005L23.081 47.6159C21.6091 44.9928 20.7683 41.968 20.7683 38.7488C20.7683 36.2663 21.2676 33.9005 22.1697 31.7457L22.346 31.5439L28.7645 34.765C28.28 35.9997 28.0146 37.3419 28.0146 38.7469C28.0146 40.7314 28.5436 42.5937 29.4698 44.1986L29.4717 44.2005Z" fill="url(#paint2_linear_459_6585)"/>
<path id="Vector_2" d="M57.2225 38.7488C57.2225 38.9469 57.2188 39.1413 57.2132 39.3357C57.2132 39.3782 57.2095 39.4227 57.2095 39.4652C57.2058 39.5411 57.2039 39.617 57.2002 39.6929C57.2002 39.7133 57.2002 39.7337 57.1965 39.754C57.1965 39.8114 57.1909 39.8725 57.1872 39.9299C57.1835 39.9836 57.1798 40.0373 57.176 40.091C57.1686 40.1854 57.1612 40.2798 57.1538 40.3742C57.1445 40.4723 57.1371 40.5704 57.126 40.6667C57.1222 40.7037 57.1185 40.7426 57.1129 40.7796C57.1092 40.8333 57.1018 40.8851 57.0944 40.9369C57.0888 40.9906 57.0833 41.0462 57.074 41.098C57.0703 41.1369 57.0647 41.1776 57.0591 41.2165C57.0536 41.2683 57.0443 41.322 57.0368 41.3757C57.022 41.4701 57.009 41.5682 56.9923 41.6645C56.9607 41.8551 56.9273 42.0458 56.8902 42.2383C56.8847 42.2661 56.8791 42.2939 56.8735 42.3216C56.8587 42.3975 56.842 42.4734 56.8271 42.5493C56.8234 42.5641 56.8197 42.5808 56.8178 42.5956C56.7974 42.6919 56.7751 42.7881 56.7529 42.8844C56.7102 43.0732 56.6638 43.2583 56.6137 43.4453C56.6007 43.4934 56.5858 43.5416 56.5747 43.5897C56.5598 43.6471 56.5431 43.7026 56.5283 43.7563C56.5246 43.7693 56.519 43.7822 56.5171 43.7952C55.6726 46.7163 54.1116 49.3358 52.0365 51.4498C51.4963 52.0015 50.9209 52.518 50.314 52.9974C47.2068 55.4539 43.2756 56.9219 39.0028 56.9219C32.1667 56.9219 26.2085 53.1677 23.0884 47.6123L29.479 44.1969C31.3741 47.4827 34.9304 49.6949 39.0028 49.6949C41.3508 49.6949 43.5261 48.96 45.3136 47.7067C45.4324 47.6234 45.5512 47.5364 45.6663 47.4476C46.9433 46.4757 47.9994 45.2298 48.7474 43.7952C49.5381 42.2846 49.9836 40.5667 49.9836 38.7451C49.9836 37.901 49.8871 37.0754 49.7052 36.2849H57.0647C57.0777 36.3793 57.0888 36.4774 57.1018 36.5718C57.1167 36.6922 57.1297 36.8125 57.1408 36.9365C57.1464 36.9995 57.1519 37.0624 57.1575 37.1254C57.1612 37.1661 57.1649 37.2068 57.1668 37.2475C57.1761 37.3327 57.1816 37.4178 57.1872 37.5048C57.1946 37.6085 57.2002 37.7103 57.2058 37.8121C57.2095 37.9084 57.215 38.0047 57.2188 38.1009C57.2225 38.2176 57.2262 38.336 57.228 38.4508C57.228 38.5489 57.2317 38.647 57.2317 38.7433L57.2225 38.7488Z" fill="url(#paint3_linear_459_6585)"/>
<path id="Vector_3" d="M28.7663 34.765C30.3626 30.6868 34.3421 27.7971 38.9954 27.7971C41.6626 27.7971 44.1053 28.7449 46.0078 30.3203L51.1455 25.198C47.9215 22.3213 43.6635 20.5701 38.9972 20.5701C31.4205 20.5701 24.9223 25.1814 22.1733 31.7438L22.3497 31.542L28.7681 34.7631L28.7663 34.765Z" fill="url(#paint4_linear_459_6585)"/>
<path id="Vector_4" d="M57.2225 38.7488C57.2225 38.945 57.2188 39.1412 57.2132 39.3356C57.2132 39.3782 57.2113 39.4226 57.2095 39.4652C57.2058 39.5411 57.2039 39.617 57.1984 39.6929C57.1984 39.7132 57.1984 39.7336 57.1947 39.754C57.1928 39.8132 57.1891 39.8724 57.1835 39.9317C57.1798 39.9854 57.1761 40.039 57.1724 40.0927C57.165 40.1871 57.1594 40.2815 57.1501 40.3759C57.1408 40.4741 57.1315 40.5703 57.1223 40.6666C57.1185 40.7055 57.1148 40.7425 57.1093 40.7814C57.1037 40.8332 57.0981 40.885 57.0907 40.9387C57.0851 40.9924 57.0777 41.0479 57.0703 41.1016C57.0666 41.1405 57.0592 41.1794 57.0536 41.2201C57.048 41.2738 57.0406 41.3256 57.0313 41.3793C57.0183 41.4756 57.0035 41.5718 56.9868 41.6681C56.9552 41.8606 56.9218 42.0513 56.8847 42.2419C56.8791 42.2697 56.8735 42.2975 56.868 42.3252C56.8531 42.4011 56.8364 42.477 56.8216 42.5529C56.8179 42.5678 56.8141 42.5844 56.8104 42.6011C56.79 42.6973 56.7677 42.7936 56.7455 42.8899C56.7009 43.0787 56.6545 43.2638 56.6063 43.4489C56.5933 43.497 56.5803 43.547 56.5673 43.5952C56.5524 43.6507 56.5357 43.7062 56.5209 43.7618C56.5172 43.7747 56.5134 43.7877 56.5097 43.8006H38.9954V36.2922H57.0554C57.0684 36.3866 57.0814 36.4829 57.0926 36.5792C57.1074 36.6995 57.1204 36.8198 57.1315 36.9439C57.1371 37.0068 57.1445 37.0697 57.1482 37.1345C57.152 37.1753 57.1557 37.216 57.1594 37.2567C57.1668 37.3419 57.1724 37.427 57.1798 37.514C57.1872 37.6158 57.1928 37.7195 57.1984 37.8213C57.2039 37.9176 57.2076 38.0138 57.2113 38.112C57.2151 38.2286 57.2188 38.3452 57.2206 38.4618C57.2206 38.5599 57.2225 38.6562 57.2225 38.7543V38.7488Z" fill="url(#paint5_linear_459_6585)"/>
</g>
<path id="Vector_5" d="M57.2225 38.7488C57.2225 38.9469 57.2188 39.1413 57.2132 39.3357C57.2132 39.3782 57.2095 39.4227 57.2095 39.4652C57.2058 39.5411 57.2039 39.617 57.2002 39.6929C57.2002 39.7133 57.2002 39.7337 57.1965 39.754C57.1965 39.8114 57.1909 39.8725 57.1872 39.9299C57.1835 39.9836 57.1798 40.0373 57.1761 40.091C57.1686 40.1854 57.1612 40.2798 57.1538 40.3742C57.1445 40.4723 57.1371 40.5704 57.126 40.6667C57.1222 40.7037 57.1185 40.7426 57.113 40.7796C57.1092 40.8333 57.1018 40.8851 57.0944 40.9369C57.0888 40.9906 57.0833 41.0462 57.074 41.098C57.0703 41.1369 57.0647 41.1776 57.0591 41.2165C57.0536 41.2683 57.0443 41.322 57.0368 41.3757C57.022 41.4701 57.009 41.5682 56.9923 41.6645C56.9607 41.8551 56.9273 42.0458 56.8902 42.2383C56.8847 42.2661 56.8791 42.2939 56.8735 42.3216C56.8587 42.3975 56.842 42.4734 56.8271 42.5493C56.8234 42.5641 56.8197 42.5808 56.8178 42.5956C56.7974 42.6919 56.7751 42.7881 56.7529 42.8844C56.7102 43.0732 56.6638 43.2583 56.6137 43.4453C56.6007 43.4934 56.5858 43.5416 56.5747 43.5897C56.5598 43.6471 56.5431 43.7026 56.5283 43.7563C56.5246 43.7693 56.519 43.7822 56.5171 43.7952C55.6726 46.7163 54.1116 49.3358 52.0365 51.4498L45.6663 47.4476C46.9433 46.4757 47.9994 45.2298 48.7474 43.7952C49.5381 42.2846 49.9836 40.5667 49.9836 38.7451C49.9836 37.901 49.8871 37.0754 49.7052 36.2849H57.0647C57.0777 36.3793 57.0888 36.4774 57.1018 36.5718C57.1167 36.6922 57.1297 36.8125 57.1408 36.9365C57.1464 36.9995 57.1519 37.0624 57.1575 37.1254C57.1612 37.1661 57.1649 37.2068 57.1668 37.2475C57.1761 37.3327 57.1816 37.4178 57.1872 37.5048C57.1946 37.6085 57.2002 37.7103 57.2058 37.8121C57.2095 37.9084 57.2151 38.0047 57.2188 38.1009C57.2225 38.2176 57.2262 38.336 57.228 38.4508C57.228 38.5489 57.2317 38.647 57.2317 38.7433L57.2225 38.7488Z" fill="url(#paint6_linear_459_6585)"/>
</g>
</g>
</g>
<defs>
<linearGradient id="paint0_linear_459_6585" x1="0.257568" y1="77.485" x2="77.7425" y2="77.485" gradientUnits="userSpaceOnUse">
<stop stop-color="#FA00FF"/>
<stop offset="1" stop-color="#0094FF"/>
</linearGradient>
<linearGradient id="paint1_linear_459_6585" x1="0.257568" y1="77.485" x2="77.7425" y2="77.485" gradientUnits="userSpaceOnUse">
<stop stop-color="#FA00FF"/>
<stop offset="1" stop-color="#0094FF"/>
</linearGradient>
<linearGradient id="paint2_linear_459_6585" x1="20.7683" y1="47.6159" x2="29.4717" y2="47.6159" gradientUnits="userSpaceOnUse">
<stop stop-color="#FA00FF"/>
<stop offset="1" stop-color="#0094FF"/>
</linearGradient>
<linearGradient id="paint3_linear_459_6585" x1="23.0884" y1="56.9219" x2="57.2317" y2="56.9219" gradientUnits="userSpaceOnUse">
<stop stop-color="#FA00FF"/>
<stop offset="1" stop-color="#0094FF"/>
</linearGradient>
<linearGradient id="paint4_linear_459_6585" x1="22.1733" y1="34.765" x2="51.1455" y2="34.765" gradientUnits="userSpaceOnUse">
<stop stop-color="#FA00FF"/>
<stop offset="1" stop-color="#0094FF"/>
</linearGradient>
<linearGradient id="paint5_linear_459_6585" x1="38.9954" y1="43.8006" x2="57.2225" y2="43.8006" gradientUnits="userSpaceOnUse">
<stop stop-color="#FA00FF"/>
<stop offset="1" stop-color="#0094FF"/>
</linearGradient>
<linearGradient id="paint6_linear_459_6585" x1="45.6663" y1="51.4498" x2="57.2317" y2="51.4498" gradientUnits="userSpaceOnUse">
<stop stop-color="#FA00FF"/>
<stop offset="1" stop-color="#0094FF"/>
</linearGradient>
</defs>
</svg>
